<svg xmlns="http://www.w3.org/2000/svg" viewBox="0 0 1024 1024" role="img" aria-label="jeffols rotational mark">
  <rect width="1024" height="1024" rx="0" fill="#F7FFE8"/>
  <g fill="#3D6600">
  <g transform="rotate(12 512 512) translate(512 512) scale(0.8800) translate(-512 -512)" opacity="0.080">
    <circle cx="470" cy="190" r="70"/>
    <rect x="460" y="340" width="160" height="280" rx="6"/>
    <path d="M 500 640 L 660 640 L 660 720 Q 660 860 520 860 L 370 860 Q 280 860 280 780 L 280 750 Q 280 710 330 710 L 410 710 Q 500 710 500 640 Z"/>
  </g>
  <g transform="rotate(6 512 512) translate(512 512) scale(0.9400) translate(-512 -512)" opacity="0.195">
    <circle cx="470" cy="190" r="70"/>
    <rect x="460" y="340" width="160" height="280" rx="6"/>
    <path d="M 500 640 L 660 640 L 660 720 Q 660 860 520 860 L 370 860 Q 280 860 280 780 L 280 750 Q 280 710 330 710 L 410 710 Q 500 710 500 640 Z"/>
  </g>
  <g transform="rotate(0 512 512) translate(512 512) scale(1.0000) translate(-512 -512)" opacity="1.000">
    <circle cx="470" cy="190" r="70"/>
    <rect x="460" y="340" width="160" height="280" rx="6"/>
    <path d="M 500 640 L 660 640 L 660 720 Q 660 860 520 860 L 370 860 Q 280 860 280 780 L 280 750 Q 280 710 330 710 L 410 710 Q 500 710 500 640 Z"/>
  </g>
  </g>
</svg>
