<svg xmlns="http://www.w3.org/2000/svg" viewBox="0 0 1024 1024" role="img" aria-label="Abstract signature icon">
  <rect x="0" y="0" width="1024" height="1024" rx="174" fill="#0B1020"/>
  <path d="M 250.69 221.30 L 246.61 227.83 L 248.24 237.63 L 378.08 361.75 L 387.06 365.01 L 472.80 365.01 L 482.60 368.28 L 490.77 376.45 L 493.22 382.98 L 493.22 601.01 L 498.93 615.71 L 507.92 623.87 L 518.53 627.96 L 598.56 627.96 L 613.26 621.42 L 623.87 603.46 L 623.87 242.53 L 618.16 230.28 L 609.17 222.11 L 600.19 218.85 L 254.78 218.85 Z" fill="#7DD3FC"/>
  <path d="M 323.37 629.59 L 296.42 636.94 L 272.74 654.09 L 256.41 679.40 L 250.69 712.88 L 256.41 738.19 L 262.94 751.26 L 276.82 767.59 L 291.52 778.21 L 309.49 785.56 L 339.70 788.01 L 371.55 777.39 L 392.78 759.43 L 400.94 747.18 L 408.29 728.40 L 409.93 696.55 L 399.31 667.97 L 376.45 643.47 L 351.95 632.04 Z" fill="#7DD3FC"/>
</svg>
